<?xml version="1.0" encoding="UTF-8" standalone="no"?>
<!-- Created with Inkscape (http://www.inkscape.org/) -->

<svg
   width="512"
   height="512"
   viewBox="0 0 512 512"
   version="1.1"
   id="svg1"
   xml:space="preserve"
   inkscape:version="1.4 (86a8ad7, 2024-10-11)"
   sodipodi:docname="Posnet.svg"
   inkscape:export-filename="Posnet.png"
   inkscape:export-xdpi="96"
   inkscape:export-ydpi="96"
   xmlns:inkscape="http://www.inkscape.org/namespaces/inkscape"
   xmlns:sodipodi="http://sodipodi.sourceforge.net/DTD/sodipodi-0.dtd"
   xmlns:xlink="http://www.w3.org/1999/xlink"
   xmlns="http://www.w3.org/2000/svg"
   xmlns:svg="http://www.w3.org/2000/svg"><sodipodi:namedview
     id="namedview1"
     pagecolor="#ffffff"
     bordercolor="#000000"
     borderopacity="0.25"
     inkscape:showpageshadow="2"
     inkscape:pageopacity="0.0"
     inkscape:pagecheckerboard="0"
     inkscape:deskcolor="#d1d1d1"
     inkscape:document-units="px"
     inkscape:zoom="1.5761719"
     inkscape:cx="214.76084"
     inkscape:cy="262.97893"
     inkscape:window-width="1920"
     inkscape:window-height="1009"
     inkscape:window-x="1592"
     inkscape:window-y="24"
     inkscape:window-maximized="1"
     inkscape:current-layer="layer1" /><defs
     id="defs1"><linearGradient
       id="linearGradient25"
       inkscape:collect="always"><stop
         style="stop-color:#1a1a1a;stop-opacity:1"
         offset="0"
         id="stop26" /><stop
         style="stop-color:#999999;stop-opacity:1"
         offset="1"
         id="stop27" /></linearGradient><linearGradient
       id="linearGradient21"
       inkscape:collect="always"><stop
         style="stop-color:#ff2a2a;stop-opacity:1"
         offset="0"
         id="stop21" /><stop
         style="stop-color:#ff7f2a;stop-opacity:1"
         offset="0.16085193"
         id="stop23" /><stop
         style="stop-color:#ffcc00;stop-opacity:1"
         offset="0.38685101"
         id="stop24" /><stop
         style="stop-color:#7fff2a;stop-opacity:1"
         offset="0.64341444"
         id="stop25" /><stop
         style="stop-color:#00aad4;stop-opacity:1"
         offset="1"
         id="stop22" /></linearGradient><linearGradient
       inkscape:collect="always"
       xlink:href="#linearGradient21"
       id="linearGradient22"
       x1="288.60342"
       y1="323.51233"
       x2="354.13034"
       y2="225.71255"
       gradientUnits="userSpaceOnUse" /><linearGradient
       inkscape:collect="always"
       xlink:href="#linearGradient25"
       id="linearGradient27"
       x1="89.477753"
       y1="170.36632"
       x2="154.82031"
       y2="102.17564"
       gradientUnits="userSpaceOnUse"
       gradientTransform="translate(3.330855,0.79306069)" /></defs><g
     inkscape:label="Layer 1"
     inkscape:groupmode="layer"
     id="layer1"><path
       style="fill:#00aad4;stroke:#000000;stroke-opacity:1;stroke-width:0;stroke-dasharray:none"
       d="m 210.44039,106.95901 c 0,0 -17.66716,-2.62652 -30.68694,4.70395 -18.87485,10.62701 -121.910577,110.93638 -121.910577,110.93638 0,0 -30.355581,26.4003 11.835682,67.5633 16.214205,15.81904 33.405085,21.73069 54.204015,24.67888 21.14363,2.99705 32.77503,-7.25372 48.7971,0.60615 8.40644,4.12392 201.01521,135.48062 201.01521,135.48062 0,0 4.92872,5.00048 6.75325,10.37384 3.32288,9.78613 20.67731,13.39213 20.67731,13.39213 0,0 17.73232,3.71573 30.00491,-4.14838 9.32431,-5.97489 53.42975,-138.41205 53.42975,-138.41205 l -0.31722,0.31722"
       id="path19"
       sodipodi:nodetypes="cscssscscscc" /><path
       style="display:inline;fill:#ffffff;stroke:#8d8d8d;stroke-opacity:1;stroke-width:1;stroke-dasharray:none"
       d="m 78.795715,177.67693 c 9.925784,7.17797 26.132275,21.25351 26.132275,21.25351 l 91.51907,-80.52781 c 0,0 -23.32839,-21.309591 -37.2357,-26.917378 -13.90731,-5.607786 -46.65678,-6.505031 -46.65678,-6.505031 L 15.652043,167.07822 c 0,0 32.921761,-1.63596 42.843486,0.89724 10.542638,2.69174 20.300186,9.70147 20.300186,9.70147 z"
       id="path17"
       sodipodi:nodetypes="cccsccsc" /><path
       style="fill:url(#linearGradient27);stroke:#000000;stroke-opacity:1;stroke-width:0;stroke-dasharray:none"
       d="M 43.375751,157.38173 117.73996,92.640764 c 0,0 22.13638,0.874731 35.85568,6.054474 15.54399,5.868652 39.02519,28.035872 39.02519,28.035872 l -76.67536,64.71375 c 0,0 -26.091691,-18.71623 -40.366784,-26.96406 -14.275093,-8.24783 -32.202935,-7.09907 -32.202935,-7.09907 z"
       id="path21"
       sodipodi:nodetypes="ccsccsc" /><path
       style="display:inline;fill:#ffffff;stroke:#000000;stroke-opacity:1;stroke-width:0;stroke-dasharray:none"
       d="m 87.63321,215.59356 c -0.77245,-4.2215 65.34133,-65.16815 65.34133,-65.16815 l 46.14142,-41.30026 c 0,0 1.87639,-2.40411 9.12584,-2.41519 4.67012,-0.007 9.83945,2.23899 9.83945,2.23899 L 102.93928,210.3197 Z"
       id="path18"
       sodipodi:nodetypes="cccsccc" /><path
       style="display:inline;fill:#ffffff;stroke:#000000;stroke-opacity:1;stroke-width:0;stroke-dasharray:none"
       d="m 101.17807,210.36565 c 0,0 -17.707164,-1.54332 -12.799361,9.90819 0.672935,1.57018 1.570181,4.26192 1.570181,4.26192 0,0 -14.751344,10.13713 -17.83276,14.01947 -3.860152,4.86349 -6.023991,12.13521 -4.597217,18.13754 2.649673,11.14697 7.536528,16.32127 11.214404,19.88324 4.021665,3.89493 12.962922,11.78681 21.309583,15.7018 8.56237,4.01618 17.52077,7.4431 31.27141,7.3117 20.41634,-0.19511 31.1276,-1.94416 40.77299,2.31776 9.6454,4.26191 27.66538,16.27146 36.85414,22.20587 5.38347,3.47682 165.65867,114.19142 168.79903,117.10747 3.14036,2.91605 5.19765,3.9447 7.88939,10.67404 2.69174,6.72935 3.77725,10.41857 8.75942,13.65111 3.92875,2.54907 17.61642,6.73402 23.95156,5.9569 5.56607,-0.68278 13.683,-4.93485 18.16923,-10.99126 4.48623,-6.05641 50.02145,-123.3713 50.24577,-133.241 0.22431,-9.86971 -2.46743,-20.63665 -2.46743,-20.63665 l -0.44862,-2.01881"
       id="path16"
       sodipodi:nodetypes="cscssssssssssssscc" /><path
       style="display:inline;fill:#ffffff;stroke:#c7c7c7;stroke-opacity:1;stroke-linejoin:miter;stroke-dasharray:none;stroke-width:1"
       d="m 101.38877,209.95551 c -1.429987,5.13113 4.93485,11.21557 4.93485,11.21557 l 312.24154,223.4142 c 0,0 8.01535,3.51745 14.29607,1.27433 6.28072,-2.24311 9.03232,-7.10642 9.03232,-7.10642 l 43.96504,-120.67956 c 0,0 1.4656,-4.27798 -2.46859,-13.97379 -1.13069,-2.78659 -8.26104,-9.21329 -8.26104,-9.21329 L 223.84572,111.39998 c 0,0 -2.4908,-2.63008 -8.25404,-2.89778 -4.87032,-0.22623 -7.43066,2.30765 -7.43066,2.30765 z"
       id="path15"
       sodipodi:nodetypes="cccsccsccscc" /><path
       style="fill:url(#linearGradient22);stroke:#000000;stroke-opacity:1;stroke-width:0;stroke-dasharray:none"
       d="M 151.18591,227.00318 402.86335,410.48994 451.76325,296.53973 237.32151,137.72723 Z"
       id="path20"
       sodipodi:nodetypes="ccccc" /></g></svg>
